<mxfile host="Electron" agent="Mozilla/5.0 (Windows NT 10.0; Win64; x64) AppleWebKit/537.36 (KHTML, like Gecko) draw.io/26.0.15 Chrome/132.0.6834.196 Electron/34.2.0 Safari/537.36" version="26.0.15">
  <diagram name="Página-1" id="CZdTuOdef_vOvNa2kQfl">
    <mxGraphModel dx="864" dy="508" grid="1" gridSize="10" guides="1" tooltips="1" connect="1" arrows="1" fold="1" page="1" pageScale="1" pageWidth="827" pageHeight="1169" math="0" shadow="0">
      <root>
        <mxCell id="0" />
        <mxCell id="1" parent="0" />
        <mxCell id="NNp8PUvWgjhED_6uWlvI-17" style="edgeStyle=orthogonalEdgeStyle;rounded=0;orthogonalLoop=1;jettySize=auto;html=1;exitX=0.5;exitY=0.5;exitDx=0;exitDy=0;exitPerimeter=0;entryX=0;entryY=0.5;entryDx=0;entryDy=0;" edge="1" parent="1" source="NNp8PUvWgjhED_6uWlvI-1" target="NNp8PUvWgjhED_6uWlvI-2">
          <mxGeometry relative="1" as="geometry" />
        </mxCell>
        <mxCell id="NNp8PUvWgjhED_6uWlvI-18" style="edgeStyle=orthogonalEdgeStyle;rounded=0;orthogonalLoop=1;jettySize=auto;html=1;exitX=0.5;exitY=0.5;exitDx=0;exitDy=0;exitPerimeter=0;entryX=0;entryY=0.5;entryDx=0;entryDy=0;" edge="1" parent="1" source="NNp8PUvWgjhED_6uWlvI-1" target="NNp8PUvWgjhED_6uWlvI-3">
          <mxGeometry relative="1" as="geometry" />
        </mxCell>
        <mxCell id="NNp8PUvWgjhED_6uWlvI-1" value="Usuario" style="shape=umlActor;verticalLabelPosition=bottom;verticalAlign=top;html=1;outlineConnect=0;" vertex="1" parent="1">
          <mxGeometry x="80" y="80" width="30" height="60" as="geometry" />
        </mxCell>
        <mxCell id="NNp8PUvWgjhED_6uWlvI-2" value="Presta Libros" style="ellipse;whiteSpace=wrap;html=1;" vertex="1" parent="1">
          <mxGeometry x="160" y="80" width="120" height="30" as="geometry" />
        </mxCell>
        <mxCell id="NNp8PUvWgjhED_6uWlvI-3" value="Realizar Reservas" style="ellipse;whiteSpace=wrap;html=1;" vertex="1" parent="1">
          <mxGeometry x="160" y="120" width="120" height="30" as="geometry" />
        </mxCell>
        <mxCell id="NNp8PUvWgjhED_6uWlvI-4" value="Cancelar Reservas" style="ellipse;whiteSpace=wrap;html=1;" vertex="1" parent="1">
          <mxGeometry x="360" y="160" width="120" height="30" as="geometry" />
        </mxCell>
        <mxCell id="NNp8PUvWgjhED_6uWlvI-19" style="edgeStyle=orthogonalEdgeStyle;rounded=0;orthogonalLoop=1;jettySize=auto;html=1;exitX=0.5;exitY=0.5;exitDx=0;exitDy=0;exitPerimeter=0;entryX=1;entryY=0.5;entryDx=0;entryDy=0;" edge="1" parent="1" source="NNp8PUvWgjhED_6uWlvI-5" target="NNp8PUvWgjhED_6uWlvI-6">
          <mxGeometry relative="1" as="geometry" />
        </mxCell>
        <mxCell id="NNp8PUvWgjhED_6uWlvI-20" style="edgeStyle=orthogonalEdgeStyle;rounded=0;orthogonalLoop=1;jettySize=auto;html=1;exitX=0.5;exitY=0.5;exitDx=0;exitDy=0;exitPerimeter=0;entryX=1;entryY=0.5;entryDx=0;entryDy=0;" edge="1" parent="1" source="NNp8PUvWgjhED_6uWlvI-5" target="NNp8PUvWgjhED_6uWlvI-7">
          <mxGeometry relative="1" as="geometry" />
        </mxCell>
        <mxCell id="NNp8PUvWgjhED_6uWlvI-21" style="edgeStyle=orthogonalEdgeStyle;rounded=0;orthogonalLoop=1;jettySize=auto;html=1;exitX=0.5;exitY=0.5;exitDx=0;exitDy=0;exitPerimeter=0;entryX=1;entryY=0.5;entryDx=0;entryDy=0;" edge="1" parent="1" source="NNp8PUvWgjhED_6uWlvI-5" target="NNp8PUvWgjhED_6uWlvI-4">
          <mxGeometry relative="1" as="geometry" />
        </mxCell>
        <mxCell id="NNp8PUvWgjhED_6uWlvI-22" style="edgeStyle=orthogonalEdgeStyle;rounded=0;orthogonalLoop=1;jettySize=auto;html=1;exitX=0.5;exitY=0.5;exitDx=0;exitDy=0;exitPerimeter=0;entryX=1;entryY=0.5;entryDx=0;entryDy=0;" edge="1" parent="1" source="NNp8PUvWgjhED_6uWlvI-5" target="NNp8PUvWgjhED_6uWlvI-8">
          <mxGeometry relative="1" as="geometry" />
        </mxCell>
        <mxCell id="NNp8PUvWgjhED_6uWlvI-5" value="Bibliotecario" style="shape=umlActor;verticalLabelPosition=bottom;verticalAlign=top;html=1;outlineConnect=0;" vertex="1" parent="1">
          <mxGeometry x="560" y="120" width="30" height="60" as="geometry" />
        </mxCell>
        <mxCell id="NNp8PUvWgjhED_6uWlvI-6" value="Prestar Libros" style="ellipse;whiteSpace=wrap;html=1;" vertex="1" parent="1">
          <mxGeometry x="360" y="80" width="120" height="30" as="geometry" />
        </mxCell>
        <mxCell id="NNp8PUvWgjhED_6uWlvI-7" value="Aceptar Reservas" style="ellipse;whiteSpace=wrap;html=1;" vertex="1" parent="1">
          <mxGeometry x="360" y="120" width="120" height="30" as="geometry" />
        </mxCell>
        <mxCell id="NNp8PUvWgjhED_6uWlvI-8" value="Registro Devolución" style="ellipse;whiteSpace=wrap;html=1;" vertex="1" parent="1">
          <mxGeometry x="360" y="200" width="120" height="30" as="geometry" />
        </mxCell>
      </root>
    </mxGraphModel>
  </diagram>
</mxfile>
